<svg class="warn mb-2" viewBox="0 0 1024 1024" version="1.1" xmlns="http://www.w3.org/2000/svg" width="30" height="30"><path d="M814 926.1H227.1c-57.4 0-108.8-29.7-137.4-79.3-28.7-49.7-28.7-109 0-158.7l293.5-508.3c28.7-49.7 80.1-79.4 137.5-79.4 57.4 0 108.8 29.7 137.5 79.4L951.5 688c28.7 49.7 28.7 109 0 158.7-28.7 49.7-80.1 79.4-137.5 79.4zM520.6 190.6c-24.8 0-46.9 12.8-59.3 34.2L167.8 733.1c-12.4 21.4-12.4 47 0 68.5 12.4 21.4 34.5 34.2 59.3 34.2H814c24.7 0 46.9-12.8 59.3-34.2 12.4-21.4 12.4-47 0-68.5L579.8 224.8c-12.3-21.4-34.5-34.2-59.2-34.2zm-98.4 11.7h.2-.2z" fill="#fff" p-id="7491"/><path d="M469.8 712.5a50.8 50.8 0 1 0 101.6 0 50.8 50.8 0 1 0-101.6 0z" fill="#fff" p-id="7492"/><path d="M520.6 622.2c-24.9 0-45.1-20.2-45.1-45.1V439.5c0-24.9 20.2-45.1 45.1-45.1 24.9 0 45.1 20.2 45.1 45.1v137.6c0 24.9-20.2 45.1-45.1 45.1z" fill="#fff" p-id="7493"/></svg>