<svg class="icon" viewBox="0 0 1024 1024" xmlns="http://www.w3.org/2000/svg" width="20" height="20"><path d="M512 896c200 0 363-153 363-341s19-193-363-193-363 4-363 193 163 341 363 341z" fill="#FF5C00"/><path d="M149 491a363 341 0 1 0 726 0 363 341 0 1 0-726 0z" fill="#FC0"/><path d="M820 311a332 332 0 0 1 31 59L405 817a373 373 0 0 1-65-26zM631 168c58 19 109 51 149 93L284 756c-46-35-83-81-107-134z" fill="#FFE3B6"/><path d="M192 480a320 288 0 1 0 640 0 320 288 0 1 0-640 0z" fill="#FF7325"/><path d="M213 480a299 267 0 1 0 598 0 299 267 0 1 0-598 0z" fill="#FFB329"/><path d="M809 512c-18 132-144 235-297 235S233 644 215 512z" fill="#FF9B1A"/><path d="M512 213c108 0 203 52 255 128H257c52-76 147-128 255-128z" fill="#FC0"/><path d="M588 510l94-14 1 41c-7 25-17 46-30 63a130 130 0 0 1-52 38c-20 8-46 13-77 13-38 0-70-6-94-16s-45-29-62-55c-18-26-27-60-27-101 0-54 16-96 47-126 31-29 74-44 131-44 44 0 79 9 104 26l56 35v42l-95 20c-4-10-7-17-11-22a61 61 0 0 0-22-18 67 67 0 0 0-30-6c-24 0-43 9-56 28-10 13-15 35-15 65 0 36 6 61 18 75 12 13 28 20 50 20 20 0 36-5 47-16 10-11 18-27 23-48z" fill="#FF5C00"/><path d="M588 467l95 27c-7 25-17 46-30 63a130 130 0 0 1-52 38c-20 9-46 13-77 13-38 0-70-5-94-16-24-10-45-28-62-55-18-26-27-59-27-100 0-55 16-97 47-126 31-30 74-44 131-44 44 0 79 8 104 25s44 42 56 77l-95 20c-4-10-7-17-11-22a61 61 0 0 0-22-18 67 67 0 0 0-30-6c-24 0-43 9-56 28-10 14-15 35-15 65 0 36 6 62 18 75 12 14 28 20 50 20 20 0 36-5 47-16 10-11 18-27 23-48z" fill="#FFDC96"/><path d="M623 292c19 12 34 30 46 52l-35 35-50 10c-4-10-7-17-11-22a61 61 0 0 0-22-18 67 67 0 0 0-30-6c-24 0-43 9-56 28-10 14-15 35-15 65 0 36 6 62 18 75 5 6 12 11 19 15l-63 63c-22-10-40-28-56-52-10-15-17-32-22-51l216-216c24 4 45 11 61 22z" fill="#FFECBD"/></svg>