<svg class="icon" viewBox="0 0 1024 1024" xmlns="http://www.w3.org/2000/svg" width="128" height="128"><path d="M780 140c-7 0-12-5-12-12V58c0-7 5-11 12-11s11 4 11 11v70c0 7-4 12-11 12zm116 861c-7 0-12-5-12-12v-46c0-7 5-12 12-12s12 5 12 12v46c0 7-5 12-12 12zm0-861c-7 0-12-5-12-12V81c0-7 5-11 12-11s12 4 12 11v47c0 7-5 12-12 12zm93 698c-7 0-12-5-12-12V710c0-7 5-12 12-12s12 5 12 12v116c0 7-5 12-12 12zm0-489c-7 0-12-5-12-12v-69c0-7 5-12 12-12s12 5 12 12v69c0 7-5 12-12 12z" fill="#0B3A5B"/><path d="M140 140H70c-26 0-47 21-47 46v745c0 26 21 46 47 46h139V303l159-163H140z" fill="#D5E3EE"/><path d="M368 116H70c-40 0-70 31-70 70v745c0 39 30 70 70 70h139c14 0 24-10 24-24s-10-23-24-23h-69c-14 0-24-9-24-23V186c0-14 10-23 24-23h228c14 0 23-9 23-23s-9-24-23-24zM74 954h-4c-14 0-23-9-23-23V186c0-14 9-23 23-23h4c-2 7-4 14-4 23v745c0 9 2 16 4 23z" fill="#0B3A5B"/><path d="M209 977h466c26 0 46-20 46-46V186c0-25-20-46-46-46H368c-12 0-24 4-33 14L177 312c-9 9-14 21-14 32v587c0 26 21 46 46 46z" fill="#EDF1F9"/><path d="M333 372h-12l-135-23 163-23 23-140 21 110c0 4 3 9 3 11 0 37-28 65-63 65z" fill="#B0C4D8"/><path d="M675 116h-47V93c0-39-30-70-69-70s-70 31-70 70v23H368c-19 0-38 7-49 21L161 296c-14 14-21 30-21 48v587c0 39 30 70 69 70h466c39 0 70-31 70-70V186c0-39-31-70-70-70zM535 93c0-14 10-23 24-23s23 9 23 23v23h-47V93zM326 195v84c0 14-9 24-23 24h-84l107-108zm372 736c0 14-9 23-23 23H209c-14 0-23-9-23-23V372c0-14 9-23 23-23h94c39 0 69-30 69-70v-93c0-14 10-23 24-23h186v140c0 14-9 23-23 23s-24-9-24-23v-70c0-14-9-24-23-24s-23 10-23 24v70c0 39 30 69 70 69s69-30 69-69V163h47c14 0 23 9 23 23v745z" fill="#0B3A5B"/><path d="M256 477c0-7 5-12 12-12h139c7 0 12 5 12 12s-5 12-12 12H268c-7 0-12-5-12-12zm140 140c0-7 4-12 11-12h140c7 0 12 5 12 12s-5 11-12 11H407c-7 0-11-4-11-11zm69-93c0-7 5-12 12-12h140c7 0 11 5 11 12s-4 11-11 11H477c-7 0-12-4-12-11zM256 756c0-7 5-11 12-11h139c7 0 12 4 12 11s-5 12-12 12H268c-7 0-12-5-12-12zm0-139c0-7 5-12 12-12h93c7 0 11 5 11 12s-4 11-11 11h-93c-7 0-12-4-12-11zm0 93c0-7 5-12 12-12h93c7 0 11 5 11 12s-4 11-11 11h-93c-7 0-12-4-12-11zm186 46c0-7 5-11 12-11h93c7 0 12 4 12 11s-5 12-12 12h-93c-7 0-12-5-12-12zM256 524c0-7 5-12 12-12h163c7 0 11 5 11 12s-4 11-11 11H268c-7 0-12-4-12-11zm93 46c0-7 5-11 12-11h163c7 0 11 4 11 11s-4 12-11 12H361c-7 0-12-5-12-12zm-93 93c0-7 5-11 12-11h163c7 0 11 4 11 11s-4 12-11 12H268c-7 0-12-5-12-12zm186-186c0-7 5-12 12-12h70c7 0 11 5 11 12s-4 12-11 12h-70c-7 0-12-5-12-12zm-70-70c0-7 5-11 12-11h116c7 0 12 4 12 11s-5 12-12 12H384c-7 0-12-5-12-12zM256 570c0-7 5-11 12-11h46c7 0 12 4 12 11s-5 12-12 12h-46c-7 0-12-5-12-12zm209 140c0-7 5-12 12-12h47c7 0 11 5 11 12s-4 11-11 11h-47c-7 0-12-4-12-11zm94-47c0-7 4-11 11-11h23c7 0 12 4 12 11s-5 12-12 12h-23c-7 0-11-5-11-12zM349 873c0-7 5-12 12-12h23c7 0 12 5 12 12s-5 11-12 11h-23c-7 0-12-4-12-11zm47-163c0-7 4-12 11-12h24c7 0 11 5 11 12s-4 11-11 11h-24c-7 0-11-4-11-11zm163-140c0-7 4-11 11-11h47c7 0 11 4 11 11s-4 12-11 12h-47c-7 0-11-5-11-12zM256 873c0-7 5-12 12-12h46c7 0 12 5 12 12s-5 11-12 11h-46c-7 0-12-4-12-11zm209-210c0-7 5-11 12-11h47c7 0 11 4 11 11s-4 12-11 12h-47c-7 0-12-5-12-12z" fill="#577280"/><path d="M559 908c-52 0-94-42-94-93s42-94 94-94 93 42 93 94-42 93-93 93zm0-140c-26 0-47 21-47 47s21 46 47 46 46-21 46-46-21-47-46-47z" fill="#F16B56"/><path d="M535 815a23 23 0 1 0 47 0 23 23 0 1 0-47 0z" fill="#F16B56"/><path d="M628 535a186 186 0 1 0 373 0 186 186 0 1 0-373 0z" fill="#FFCB5B"/><path d="M1024 535c0-72-37-137-93-174v-98c0-9 5-19 9-26l42-42c12-9 19-25 19-39v-42c14-5 23-19 23-33 0-18-16-34-35-34s-35 16-35 34c0 17 9 28 23 33v42c0 9-4 19-9 26l-42 41c-11 10-18 26-18 40v84c-14-7-31-14-47-17V230c14-4 23-18 23-32 0-19-16-35-35-35s-34 16-34 35c0 16 9 28 23 32v98l-23-2c-117 0-210 93-210 209s93 210 210 210v142c-14 4-24 18-24 32 0 19 17 35 35 35s35-16 35-35c0-16-9-28-23-32V742c16-2 32-4 46-11v51c0 16 7 30 17 42l42 42c7 7 9 16 9 25v42c-14 5-23 19-23 33 0 18 16 35 34 35s35-17 35-35c0-16-9-28-23-33v-42c0-16-7-30-16-42l-42-41c-7-7-9-17-9-26v-61c69-32 116-104 116-186zM989 70c7 0 12 4 12 11s-5 12-12 12-12-5-12-12 5-11 12-11zM849 186c7 0 12 5 12 12s-5 11-12 11-11-4-11-11 4-12 11-12zm-23 745c-7 0-11-5-11-12s4-11 11-11 12 4 12 11-5 12-12 12zm140 46c-7 0-12-4-12-11s5-12 12-12 11 5 11 12-4 11-11 11zM652 535c0-90 72-163 163-163s162 73 162 163-72 163-162 163-163-72-163-163z" fill="#0B3A5B"/><path d="M884 512v-47c0-39-30-69-69-69s-70 30-70 69v47c-14 0-24 9-24 23v93c0 14 10 24 24 24h139c14 0 24-10 24-24v-93c0-14-10-23-24-23zm-69 93c-14 0-24-9-24-23s10-23 24-23 23 9 23 23-9 23-23 23zm23-93h-47v-47c0-14 10-23 24-23s23 9 23 23v47z" fill="#0B3A5B"/></svg>