<svg class="icon" viewBox="0 0 1024 1024" xmlns="http://www.w3.org/2000/svg" width="20" height="20"><path d="M256 0h512q256 0 256 256v512q0 256-256 256H256Q0 1024 0 768V256Q0 0 256 0z" fill="#3E49F6"/><path d="M757 286a2 2 0 0 0-1-1 575 575 0 0 0-143-45 2 2 0 0 0-3 1l-17 37a529 529 0 0 0-161 0 378 378 0 0 0-19-37 2 2 0 0 0-2-1c-49 9-97 24-143 45a2 2 0 0 0-1 1c-91 138-116 273-104 406l1 2a581 581 0 0 0 176 90 2 2 0 0 0 2-1c14-19 26-38 36-59a2 2 0 0 0 0-2 2 2 0 0 0-1-1 382 382 0 0 1-55-27 2 2 0 0 1 0-4l11-8a2 2 0 0 1 2-1c115 54 240 54 354 0a2 2 0 0 1 2 1l11 8a2 2 0 0 1 0 4c-18 10-36 19-55 27a2 2 0 0 0-1 3c10 20 22 40 36 59a2 2 0 0 0 2 1 579 579 0 0 0 176-90 2 2 0 0 0 1-2c15-154-25-288-104-406zM395 611c-34 0-63-32-63-72s28-72 63-72c36 0 64 33 64 72 0 40-29 72-64 72zm234 0c-35 0-63-32-63-72s28-72 63-72c36 0 64 33 63 72 0 40-27 72-63 72z" fill="#FFF"/></svg>