<svg class="icon" viewBox="0 0 1024 1024" xmlns="http://www.w3.org/2000/svg" width="20" height="20"><path d="M0 512a512 512 0 1 0 1024 0A512 512 0 1 0 0 512z" fill="#14ACEE"/><path d="M599 287c79 0 145 54 145 54 79 162 75 303 75 303-62 83-158 75-158 75l-33-42c58-12 92-62 92-62s-88 58-208 58c-125 0-208-58-208-58s38 50 92 62l-33 42s-96 4-158-75c0-9-2-146 75-303 0 0 70-54 145-54l8 8s-79 24-125 63l-4 4s88-55 208-55c114 0 200 48 207 54l1 1c-46-42-129-67-129-67l8-8zM414 471c-30 0-56 26-56 60s26 60 56 60 55-26 55-60-25-60-55-60zm196 0c-30 0-55 26-55 60s25 60 55 60 56-26 56-60c-5-34-26-60-56-60z" fill="#FFF"/></svg>