<svg class="icon" viewBox="0 0 1024 1024" xmlns="http://www.w3.org/2000/svg" width="400" height="400"><path d="M0 0h1024v1024H0z" fill="none"/><path d="M879 85H145c-34 0-60 26-60 60v734c0 34 26 60 60 60h734c17 0 30-9 43-17 12-13 17-26 17-43V145c0-34-26-60-60-60zM277 418l116-128c8-8 17-13 25-13 9 0 17 5 26 9 13 13 17 34 4 51l-64 68h337c21 0 34 17 34 34 0 22-17 35-34 35H303c-21 0-34-17-34-39 0-4 4-13 8-17zm470 188L631 734c-8 8-17 13-25 13-9 0-17-5-26-9-13-13-13-34 0-51l60-68H303c-21 0-34-17-34-39 0-17 17-30 34-34h418c21 0 34 17 34 39 0 8-4 17-8 21z" fill="#5A6A8E"/></svg>