<svg t="1690353802470" class="icon" viewBox="0 0 1024 1024" version="1.1" xmlns="http://www.w3.org/2000/svg" p-id="17847" width="128" height="128"><path d="M874.688 213.348v533.302c0 35.312-28.75 64-63.998 64-35.31 0-63.998-28.688-63.998-64V661.34c-25.938 19.438-42.688 50.438-42.688 85.31 0 58.906 47.75 106.686 106.686 106.686 58.874 0 106.624-47.78 106.624-106.686V213.348h-42.626z" fill="#E6E9ED" p-id="17848"></path><path d="M746.692 981.334c0 23.562-19.124 42.656-42.688 42.656H192.03c-23.592 0-42.686-19.094-42.686-42.656V42.664C149.344 19.102 168.438 0.01 192.03 0.01h511.974c23.562 0 42.688 19.092 42.688 42.654v938.67z" fill="#ED5564" p-id="17849"></path><path d="M704.004 0.01H192.03c-23.592 0-42.686 19.092-42.686 42.654v383.994h597.348V42.664c0-23.562-19.126-42.654-42.688-42.654z" fill="#E6E9ED" p-id="17850"></path><path d="M746.692 895.992H149.342c-23.562 0-42.656 19.094-42.656 42.654v85.344h682.626v-85.344c0.002-23.56-19.058-42.654-42.62-42.654zM896 298.66c0 11.782-9.562 21.342-21.312 21.342-11.812 0-21.376-9.562-21.376-21.342s9.562-21.312 21.376-21.312c11.75 0 21.312 9.53 21.312 21.312z" fill="#434A54" p-id="17851"></path><path d="M917.312 213.348c0-47.124-38.188-85.342-85.31-85.342h-21.438c-11.75 0-21.312 9.562-21.312 21.342s9.562 21.312 21.312 21.312h21.25v0.032c0.062-0.032 0.124-0.032 0.188-0.032 23.498 0 42.686 19.156 42.686 42.686v0.188h-85.498l0.124 170.372 85.374 42.75h42.5V218.13c0.062-1.594 0.124-3.188 0.124-4.782z m-42.812 165.528l-42.498-21.312-0.124-101.374h42.624v122.686z" fill="#656D78" p-id="17852"></path><path d="M541.054 615.714c-38.968-48.81-24.218-114.746-24.062-115.34L524.742 468l-32.624 6.468c-43.25 8.532-77.81 27.876-102.716 57.468-17.5 20.842-30.28 46.874-38.092 77.686l-18.75-24.562-13.374 36.466c-21.062 57.406-16.406 112.28 13.062 154.498 27.718 39.656 76.624 65.28 124.624 65.28h0.032c0.062 0 0.124 0.032 0.188 0.032h21.156l0.032-1.906c39.906-7 75.796-33.092 93.17-69.248 13.056-27.156 26.494-83.31-30.396-154.468z" fill="#FFCE54" p-id="17853"></path><path d="M278.028 149.35h339.978c11.812 0 21.31-9.562 21.31-21.342 0-11.782-9.498-21.342-21.31-21.342H278.028a21.332 21.332 0 0 0-21.344 21.342c0 11.78 9.532 21.342 21.344 21.342zM618.006 192.006H278.028a21.332 21.332 0 0 0-21.344 21.342c0 11.782 9.532 21.312 21.344 21.312h339.978a21.278 21.278 0 0 0 21.31-21.312c0-11.78-9.498-21.342-21.31-21.342zM448.024 277.348h-169.996c-11.812 0-21.344 9.532-21.344 21.312s9.532 21.342 21.344 21.342h169.996c11.782 0 21.312-9.562 21.312-21.342s-9.53-21.312-21.312-21.312z" fill="#434A54" p-id="17854"></path></svg>
