<svg class="icon" viewBox="0 0 1024 1024" xmlns="http://www.w3.org/2000/svg" width="20" height="20"><path d="M0 759a512 125 0 1 0 1024 0A512 125 0 1 0 0 759z" fill="#E5E5E5"/><path d="M910 239H114v-79c0-11 9-21 20-21h756c11 0 20 10 20 21v79z" fill="#253369"/><path d="M890 745H134c-11 0-20-9-20-20V232h796v493c0 11-9 20-20 20" fill="#E9EEF7"/><path d="M165 263h700q3 0 3 3v34q0 3-3 3H165q-3 0-3-3v-34q0-3 3-3zm0 66h179q3 0 3 2v199q0 3-3 3H165q-3 0-3-3V331q0-2 3-2zm208 0h492q3 0 3 2v199q0 3-3 3H373q-3 0-3-3V331q0-2 3-2zM165 559h492q3 0 3 3v145q0 3-3 3H165q-3 0-3-3V562q0-3 3-3zm521 0h179q3 0 3 3v145q0 3-3 3H686q-3 0-3-3V562q0-3 3-3z" fill="#D5DCE9" opacity=".398"/><path d="M181 186c0 9-8 17-18 17s-17-8-17-17c0-10 7-18 17-18s18 8 18 18" fill="#FF7946"/><path d="M246 186c0 9-8 17-17 17-10 0-18-8-18-17 0-10 8-18 18-18 9 0 17 8 17 18" fill="#FFC53D"/><path d="M312 186c0 9-8 17-18 17s-18-8-18-17c0-10 8-18 18-18s18 8 18 18" fill="#BAE637"/><path d="M142 649s-26 68-23 95c2 20 26 19 29 4 5-29-6-99-6-99" fill="#75AE16"/><path d="M99 682s-10 64 0 85c8 16 32 7 31-6-1-25-31-79-31-79" fill="#5F960C"/><path d="M57 693s7 65 22 83c11 14 32 0 28-12-8-24-50-71-50-71" fill="#4B8108"/><path d="M170 708s-38 35-41 54c-2 13 21 19 27 11 11-17 14-65 14-65" fill="#2A6A13"/><path d="M62 779l3-8a13 13 0 0 1 9-6 13 13 0 0 1 11 2 5 5 0 0 0 6-1l4-4a17 17 0 0 1 14-5 17 17 0 0 1 12 7 5 5 0 0 0 6 1l3-1a21 21 0 0 1 19 1l8 5a5 5 0 0 0 4 0 5 5 0 0 1 4 0 5 5 0 0 1 3 3l2 6a5 5 0 0 1 0 5 5 5 0 0 1-4 2H66a5 5 0 0 1-4-3 5 5 0 0 1 0-4" fill="#424242"/><path d="M108 721l7 10c1 0 0-5-3-11s-7-10-8-10l4 11z" fill="#8FAE16"/><path d="M141 704l1-11-1-11c-1 0-2 5-2 11s1 11 2 11z" fill="#B3CE4F"/><path d="M153 747l-4 11c1 0 4-4 6-10l4-11-6 10zm-74-13l9 9-7-10-9-9s2 5 7 10z" fill="#6A960C"/><path d="M925 583s-40 102-36 142c3 30 40 28 44 6 8-43-8-148-8-148" fill="#75AE16"/><path d="M859 627s-14 94 1 126c11 23 48 10 47-9-3-37-48-117-48-117" fill="#5F960C"/><path d="M796 649s11 97 34 125c16 20 48 0 42-19-12-36-76-106-76-106" fill="#4B8108"/><path d="M966 672s-57 52-61 79c-3 20 31 30 40 17 16-25 21-96 21-96" fill="#2A6A13"/><path d="M804 771l5-10a20 20 0 0 1 13-10 20 20 0 0 1 16 3 7 7 0 0 0 10-1l6-6a26 26 0 0 1 20-8c8 0 15 4 19 10a7 7 0 0 0 9 2l4-1a31 31 0 0 1 28 1l12 7a7 7 0 0 0 7 1 8 8 0 0 1 6 0 7 7 0 0 1 4 4l4 9a7 7 0 0 1-1 7 7 7 0 0 1-6 3H810a7 7 0 0 1-6-4 7 7 0 0 1 0-7" fill="#424242"/><path d="M873 690l11 16c1 0-1-8-5-17-5-9-10-15-11-14-1 0 1 7 5 15z" fill="#8FAE16"/><path d="M922 665c1 0 3-7 3-16s-2-16-3-16-2 7-2 16 1 16 2 16z" fill="#B3CE4F"/><path d="M940 730c-4 9-6 16-5 16s5-6 9-15c4-8 6-15 5-16l-9 15zm-111-20c6 8 13 14 14 14 0-1-4-8-10-15-6-8-13-14-14-14l10 15z" fill="#6A960C"/><path d="M418 464c0 52 42 94 94 94s94-42 94-94-42-94-94-94-94 42-94 94z" fill="#FF7575"/><path d="M505 481c1 4 4 6 7 6 4 0 6-2 7-6l5-64c0-7-6-12-12-12-7 0-11 6-11 13l4 63zm7 18c-7 0-11 4-11 11s4 12 11 12 12-5 12-12-5-11-12-11z" fill="#FFF"/></svg>