<svg class="icon" viewBox="0 0 1024 1024" xmlns="http://www.w3.org/2000/svg" width="25" height="25"><path d="M0 512a512 512 0 1 0 1024 0A512 512 0 1 0 0 512z" fill="#3298F0"/><path d="M752 401v-18a287 287 0 0 0 64-67 234 234 0 0 1-71 21 141 141 0 0 0 56-70 300 300 0 0 1-77 31 125 125 0 0 0-92-42c-71 0-123 56-123 131a98 98 0 0 0 3 31 360 360 0 0 1-258-141 73 73 0 0 0-24 60 137 137 0 0 0 56 113 107 107 0 0 1-56-17c0 63 42 120 98 130a98 98 0 0 1-31 4 69 69 0 0 1-25-4 124 124 0 0 0 116 92 240 240 0 0 1-155 56 69 69 0 0 1-28-3 330 330 0 0 0 191 60c229 7 356-194 356-367z" fill="#FFF"/></svg>