<svg class="icon" viewBox="0 0 1024 1024" xmlns="http://www.w3.org/2000/svg" width="20" height="20"><path d="M695 891H328c-21 0-39-18-39-39s18-40 39-40h367c22 0 40 18 40 40s-18 39-40 39zm55-753H274c-92 0-168 76-168 168v275c0 92 76 168 168 168h476c92 0 167-76 167-168V306c0-92-75-168-167-168zM506 652c-29 0-50-19-50-49s21-48 50-48 50 19 50 48-22 49-50 49zm27-141h-56c-15-91 93-115 93-175 0-33-21-57-61-57-29 0-55 14-80 41l-37-33c32-36 72-60 124-60 69 0 116 38 116 104 0 84-110 99-99 180z" fill="#FF4C60"/></svg>